<mxfile host="app.diagrams.net" modified="2024-06-16T18:41:34.417Z" agent="Mozilla/5.0 (Macintosh; Intel Mac OS X 10_15_7) AppleWebKit/537.36 (KHTML, like Gecko) Chrome/125.0.0.0 Safari/537.36" etag="VZmi4bSOnQ49CE7YqOLp" version="24.5.4" type="github">
  <diagram name="Page-1" id="e-sTQ1GZmDojDukoQ0Mi">
    <mxGraphModel dx="2741" dy="2195" grid="1" gridSize="10" guides="1" tooltips="1" connect="1" arrows="1" fold="1" page="1" pageScale="1" pageWidth="827" pageHeight="1169" math="0" shadow="0">
      <root>
        <mxCell id="0" />
        <mxCell id="1" parent="0" />
        <mxCell id="O4ewTy7bo_iGMa0oxZgt-3" value="" style="sketch=0;outlineConnect=0;fontColor=#232F3E;gradientColor=none;fillColor=#7AA116;strokeColor=none;dashed=0;verticalLabelPosition=bottom;verticalAlign=top;align=center;html=1;fontSize=12;fontStyle=0;aspect=fixed;pointerEvents=1;shape=mxgraph.aws4.iot_core_device_location;" parent="1" vertex="1">
          <mxGeometry x="-600" y="550" width="320" height="320" as="geometry" />
        </mxCell>
        <mxCell id="O4ewTy7bo_iGMa0oxZgt-4" value="" style="image;aspect=fixed;perimeter=ellipsePerimeter;html=1;align=center;shadow=0;dashed=0;spacingTop=3;image=img/lib/active_directory/router.svg;" parent="1" vertex="1">
          <mxGeometry x="310" y="120" width="368.4" height="280" as="geometry" />
        </mxCell>
        <mxCell id="O4ewTy7bo_iGMa0oxZgt-5" value="" style="verticalLabelPosition=bottom;shadow=0;dashed=0;align=center;html=1;verticalAlign=top;strokeWidth=1;shape=mxgraph.mockup.navigation.mapNavigator;fillColor2=#99ddff;strokeColor2=none;strokeColor3=#ffffff;strokeColor=#999999;" parent="1" vertex="1">
          <mxGeometry x="160" y="490" width="350" height="460" as="geometry" />
        </mxCell>
        <mxCell id="O4ewTy7bo_iGMa0oxZgt-6" value="" style="image;sketch=0;aspect=fixed;html=1;points=[];align=center;fontSize=12;image=img/lib/mscae/Search.svg;" parent="1" vertex="1">
          <mxGeometry x="-700" y="-120" width="400" height="400" as="geometry" />
        </mxCell>
        <mxCell id="O4ewTy7bo_iGMa0oxZgt-7" value="" style="image;aspect=fixed;html=1;points=[];align=center;fontSize=12;image=img/lib/azure2/management_governance/Resource_Graph_Explorer.svg;" parent="1" vertex="1">
          <mxGeometry x="-145.94" y="90" width="355.94" height="340" as="geometry" />
        </mxCell>
        <mxCell id="O4ewTy7bo_iGMa0oxZgt-8" value="" style="outlineConnect=0;dashed=0;verticalLabelPosition=bottom;verticalAlign=top;align=center;html=1;shape=mxgraph.aws3.classic_load_balancer;fillColor=#F58534;gradientColor=none;" parent="1" vertex="1">
          <mxGeometry x="-250" y="-432" width="460" height="432" as="geometry" />
        </mxCell>
        <mxCell id="O4ewTy7bo_iGMa0oxZgt-9" value="" style="image;aspect=fixed;perimeter=ellipsePerimeter;html=1;align=center;shadow=0;dashed=0;spacingTop=3;image=img/lib/active_directory/user.svg;" parent="1" vertex="1">
          <mxGeometry x="470" y="-440" width="155.4" height="420" as="geometry" />
        </mxCell>
        <mxCell id="O4ewTy7bo_iGMa0oxZgt-10" value="" style="editableCssRules=.*;html=1;shape=image;verticalLabelPosition=bottom;labelBackgroundColor=#ffffff;verticalAlign=top;aspect=fixed;imageAspect=0;image=data:image/svg+xml,PHN2ZyB4bWxucz0iaHR0cDovL3d3dy53My5vcmcvMjAwMC9zdmciIHhtbG5zOnY9Imh0dHBzOi8vdmVjdGEuaW8vbmFubyIgd2lkdGg9IjE4LjMxOTk5OTY5NDgyNDIyIiBoZWlnaHQ9IjIwLjAwMDAwMTkwNzM0ODYzMyIgdmlld0JveD0iMCAwIDE4LjMxOTk5OTY5NDgyNDIyIDIwLjAwMDAwMTkwNzM0ODYzMyI+JiN4YTsJPHN0eWxlIHR5cGU9InRleHQvY3NzIj4mI3hhOwkuc3Qwe2ZpbGw6IzY2OWRmNjt9JiN4YTsJLnN0MXtmaWxsOiM0Mjg1ZjQ7fSYjeGE7CS5zdDJ7ZmlsbDojYWVjYmZhO30mI3hhOwk8L3N0eWxlPiYjeGE7CTxkZWZzPiYjeGE7CQk8ZmlsdGVyIGlkPSJBIiB4PSI0LjY0IiB5PSI0LjE5IiB3aWR0aD0iMTQuNzMiIGhlaWdodD0iMTIuNzYiIGZpbHRlclVuaXRzPSJ1c2VyU3BhY2VPblVzZSIgY29sb3ItaW50ZXJwb2xhdGlvbi1maWx0ZXJzPSJzUkdCIj4mI3hhOwkJCTxmZUZsb29kIGZsb29kLWNvbG9yPSIjZmZmIi8+JiN4YTsJCQk8ZmVCbGVuZCBpbj0iU291cmNlR3JhcGhpYyIvPiYjeGE7CQk8L2ZpbHRlcj4mI3hhOwkJPG1hc2sgaWQ9IkIiIHg9IjQuNjQiIHk9IjQuMTkiIHdpZHRoPSIxNC43MyIgaGVpZ2h0PSIxMi43NiIgbWFza1VuaXRzPSJ1c2VyU3BhY2VPblVzZSI+JiN4YTsJCQk8Y2lyY2xlIGN4PSIxMiIgY3k9IjEyLjIzIiByPSIzLjU4IiBmaWx0ZXI9InVybCgjQSkiLz4mI3hhOwkJPC9tYXNrPiYjeGE7CTwvZGVmcz4mI3hhOwk8ZyBjbGFzcz0ic3QwIj4mI3hhOwkJPGNpcmNsZSBjeD0iMTYuMTMiIGN5PSI2LjIxIiByPSIxLjcyIi8+JiN4YTsJCTxjaXJjbGUgY3g9IjIuMTkiIGN5PSI2LjIxIiByPSIxLjcyIi8+JiN4YTsJCTxjaXJjbGUgY3g9IjkuMTYiIGN5PSIxOC4yOCIgcj0iMS43MiIvPiYjeGE7CTwvZz4mI3hhOwk8ZyBtYXNrPSJ1cmwoI0IpIiB0cmFuc2Zvcm09InRyYW5zbGF0ZSgtMi44NCAtMikiPiYjeGE7CQk8cGF0aCB0cmFuc2Zvcm09Im1hdHJpeCguNSAtLjg3IC44NyAuNSAtNC41OSAyMC41MykiIGQ9Ik0xNC42OSAxMC4yMmgxLjU5djguMDRoLTEuNTl6IiBjbGFzcz0ic3QxIi8+JiN4YTsJCTxwYXRoIHRyYW5zZm9ybT0icm90YXRlKDMzMCA4LjUyMyAxNC4yNDQpIiBkPSJNNC40OSAxMy40NWg4LjA0djEuNTlINC40OXoiIGNsYXNzPSJzdDEiLz4mI3hhOwkJPHBhdGggZD0iTTExLjIgNC4xOWgxLjU5djguMDRIMTEuMnoiIGNsYXNzPSJzdDEiLz4mI3hhOwk8L2c+JiN4YTsJPGcgY2xhc3M9InN0MiI+JiN4YTsJCTxjaXJjbGUgY3g9IjkuMTYiIGN5PSIxMC4yMyIgcj0iMi43OCIvPiYjeGE7CQk8Y2lyY2xlIGN4PSIyLjE5IiBjeT0iMTQuMjUiIHI9IjIuMTkiLz4mI3hhOwkJPGNpcmNsZSBjeD0iMTYuMTMiIGN5PSIxNC4yNSIgcj0iMi4xOSIvPiYjeGE7CQk8Y2lyY2xlIGN4PSI5LjE2IiBjeT0iMi4xOSIgcj0iMi4xOSIvPiYjeGE7CTwvZz4mI3hhOzwvc3ZnPg==;" parent="1" vertex="1">
          <mxGeometry x="625.4" y="469.5" width="432.9" height="481" as="geometry" />
        </mxCell>
        <mxCell id="O4ewTy7bo_iGMa0oxZgt-14" value="" style="image;sketch=0;aspect=fixed;html=1;points=[];align=center;fontSize=12;image=img/lib/mscae/Database_General.svg;" parent="1" vertex="1">
          <mxGeometry x="-123.77" y="540" width="220.4" height="290" as="geometry" />
        </mxCell>
        <mxCell id="O4ewTy7bo_iGMa0oxZgt-15" value="" style="image;aspect=fixed;perimeter=ellipsePerimeter;html=1;align=center;shadow=0;dashed=0;spacingTop=3;image=img/lib/active_directory/databases.svg;" parent="1" vertex="1">
          <mxGeometry x="-440" y="190" width="326.53" height="320" as="geometry" />
        </mxCell>
        <mxCell id="O4ewTy7bo_iGMa0oxZgt-17" value="" style="html=1;verticalLabelPosition=bottom;align=center;labelBackgroundColor=#ffffff;verticalAlign=top;strokeWidth=2;strokeColor=#0080F0;shadow=0;dashed=0;shape=mxgraph.ios7.icons.globe;" parent="1" vertex="1">
          <mxGeometry x="-240" y="1230" width="170" height="170" as="geometry" />
        </mxCell>
        <mxCell id="O4ewTy7bo_iGMa0oxZgt-35" value="" style="ellipse;whiteSpace=wrap;html=1;aspect=fixed;fillColor=#dae8fc;strokeColor=#6c8ebf;" parent="1" vertex="1">
          <mxGeometry x="162" y="1040" width="560" height="560" as="geometry" />
        </mxCell>
        <mxCell id="O4ewTy7bo_iGMa0oxZgt-36" value="" style="endArrow=none;html=1;rounded=0;entryX=0.28;entryY=0.051;entryDx=0;entryDy=0;entryPerimeter=0;exitX=0.282;exitY=0.957;exitDx=0;exitDy=0;exitPerimeter=0;" parent="1" source="O4ewTy7bo_iGMa0oxZgt-35" target="O4ewTy7bo_iGMa0oxZgt-35" edge="1">
          <mxGeometry width="50" height="50" relative="1" as="geometry">
            <mxPoint x="332" y="1620" as="sourcePoint" />
            <mxPoint x="280" y="1080" as="targetPoint" />
          </mxGeometry>
        </mxCell>
        <mxCell id="O4ewTy7bo_iGMa0oxZgt-37" value="" style="endArrow=none;html=1;rounded=0;entryX=0.5;entryY=0;entryDx=0;entryDy=0;exitX=0.5;exitY=1;exitDx=0;exitDy=0;" parent="1" source="O4ewTy7bo_iGMa0oxZgt-35" target="O4ewTy7bo_iGMa0oxZgt-35" edge="1">
          <mxGeometry width="50" height="50" relative="1" as="geometry">
            <mxPoint x="299.5" y="1282" as="sourcePoint" />
            <mxPoint x="299.5" y="1050" as="targetPoint" />
          </mxGeometry>
        </mxCell>
        <mxCell id="O4ewTy7bo_iGMa0oxZgt-38" value="" style="endArrow=none;html=1;rounded=0;entryX=0.707;entryY=0.044;entryDx=0;entryDy=0;entryPerimeter=0;exitX=0.709;exitY=0.951;exitDx=0;exitDy=0;exitPerimeter=0;" parent="1" source="O4ewTy7bo_iGMa0oxZgt-35" target="O4ewTy7bo_iGMa0oxZgt-35" edge="1">
          <mxGeometry width="50" height="50" relative="1" as="geometry">
            <mxPoint x="627" y="1650" as="sourcePoint" />
            <mxPoint x="616" y="1080" as="targetPoint" />
          </mxGeometry>
        </mxCell>
        <mxCell id="O4ewTy7bo_iGMa0oxZgt-39" value="" style="endArrow=none;html=1;rounded=0;exitX=0.043;exitY=0.712;exitDx=0;exitDy=0;exitPerimeter=0;entryX=0.957;entryY=0.712;entryDx=0;entryDy=0;entryPerimeter=0;" parent="1" source="O4ewTy7bo_iGMa0oxZgt-35" target="O4ewTy7bo_iGMa0oxZgt-35" edge="1">
          <mxGeometry width="50" height="50" relative="1" as="geometry">
            <mxPoint x="180" y="1130" as="sourcePoint" />
            <mxPoint x="420" y="1130" as="targetPoint" />
          </mxGeometry>
        </mxCell>
        <mxCell id="O4ewTy7bo_iGMa0oxZgt-40" value="" style="endArrow=none;html=1;rounded=0;entryX=1;entryY=0.5;entryDx=0;entryDy=0;exitX=0;exitY=0.5;exitDx=0;exitDy=0;" parent="1" source="O4ewTy7bo_iGMa0oxZgt-35" target="O4ewTy7bo_iGMa0oxZgt-35" edge="1">
          <mxGeometry width="50" height="50" relative="1" as="geometry">
            <mxPoint x="170" y="1190" as="sourcePoint" />
            <mxPoint x="416" y="1190" as="targetPoint" />
            <Array as="points">
              <mxPoint x="450" y="1320" />
            </Array>
          </mxGeometry>
        </mxCell>
        <mxCell id="O4ewTy7bo_iGMa0oxZgt-41" value="" style="endArrow=none;html=1;rounded=0;entryX=0.95;entryY=0.28;entryDx=0;entryDy=0;entryPerimeter=0;exitX=0.05;exitY=0.284;exitDx=0;exitDy=0;exitPerimeter=0;" parent="1" source="O4ewTy7bo_iGMa0oxZgt-35" target="O4ewTy7bo_iGMa0oxZgt-35" edge="1">
          <mxGeometry width="50" height="50" relative="1" as="geometry">
            <mxPoint x="190" y="1250" as="sourcePoint" />
            <mxPoint x="410" y="1250" as="targetPoint" />
          </mxGeometry>
        </mxCell>
        <mxCell id="O4ewTy7bo_iGMa0oxZgt-43" value="" style="endArrow=oval;html=1;rounded=0;startArrow=oval;startFill=1;endFill=1;" parent="1" edge="1">
          <mxGeometry width="50" height="50" relative="1" as="geometry">
            <mxPoint x="470" y="1260" as="sourcePoint" />
            <mxPoint x="540" y="1260" as="targetPoint" />
          </mxGeometry>
        </mxCell>
        <mxCell id="O4ewTy7bo_iGMa0oxZgt-44" value="" style="endArrow=none;html=1;rounded=0;startArrow=oval;startFill=1;" parent="1" edge="1">
          <mxGeometry width="50" height="50" relative="1" as="geometry">
            <mxPoint x="530" y="1230" as="sourcePoint" />
            <mxPoint x="540" y="1260" as="targetPoint" />
          </mxGeometry>
        </mxCell>
        <mxCell id="O4ewTy7bo_iGMa0oxZgt-45" value="" style="endArrow=oval;html=1;rounded=0;startArrow=oval;startFill=1;endFill=1;" parent="1" edge="1">
          <mxGeometry width="50" height="50" relative="1" as="geometry">
            <mxPoint x="540" y="1260" as="sourcePoint" />
            <mxPoint x="560" y="1320" as="targetPoint" />
          </mxGeometry>
        </mxCell>
        <mxCell id="O4ewTy7bo_iGMa0oxZgt-46" value="" style="endArrow=oval;html=1;rounded=0;startArrow=oval;startFill=1;endFill=1;" parent="1" edge="1">
          <mxGeometry width="50" height="50" relative="1" as="geometry">
            <mxPoint x="470" y="1260" as="sourcePoint" />
            <mxPoint x="440" y="1320" as="targetPoint" />
          </mxGeometry>
        </mxCell>
        <mxCell id="O4ewTy7bo_iGMa0oxZgt-47" value="" style="endArrow=oval;html=1;rounded=0;startArrow=oval;startFill=1;endFill=1;" parent="1" edge="1">
          <mxGeometry width="50" height="50" relative="1" as="geometry">
            <mxPoint x="530" y="1230" as="sourcePoint" />
            <mxPoint x="470" y="1260" as="targetPoint" />
          </mxGeometry>
        </mxCell>
        <mxCell id="O4ewTy7bo_iGMa0oxZgt-48" value="" style="endArrow=oval;html=1;rounded=0;startArrow=oval;startFill=1;endFill=1;fillColor=#f8cecc;strokeColor=#b85450;" parent="1" edge="1">
          <mxGeometry width="50" height="50" relative="1" as="geometry">
            <mxPoint x="470" y="1260" as="sourcePoint" />
            <mxPoint x="440" y="1200" as="targetPoint" />
          </mxGeometry>
        </mxCell>
        <mxCell id="O4ewTy7bo_iGMa0oxZgt-49" value="" style="endArrow=oval;html=1;rounded=0;startArrow=oval;startFill=1;endFill=1;" parent="1" edge="1">
          <mxGeometry width="50" height="50" relative="1" as="geometry">
            <mxPoint x="560" y="1320" as="sourcePoint" />
            <mxPoint x="470" y="1260" as="targetPoint" />
          </mxGeometry>
        </mxCell>
        <mxCell id="O4ewTy7bo_iGMa0oxZgt-50" value="&lt;font style=&quot;font-size: 16px; font-weight: normal;&quot;&gt;&amp;nbsp;(lat, long)&lt;/font&gt;" style="text;strokeColor=none;fillColor=none;html=1;fontSize=24;fontStyle=1;verticalAlign=middle;align=center;" parent="1" vertex="1">
          <mxGeometry x="450" y="1169" width="50" height="20" as="geometry" />
        </mxCell>
        <mxCell id="O4ewTy7bo_iGMa0oxZgt-53" value="&lt;font style=&quot;font-size: 16px; font-weight: normal;&quot;&gt;&amp;nbsp;(lat, long)&lt;/font&gt;" style="text;strokeColor=none;fillColor=none;html=1;fontSize=24;fontStyle=1;verticalAlign=middle;align=center;" parent="1" vertex="1">
          <mxGeometry x="330" y="1290" width="50" height="20" as="geometry" />
        </mxCell>
        <mxCell id="O4ewTy7bo_iGMa0oxZgt-54" value="&lt;font style=&quot;font-size: 16px; font-weight: normal;&quot;&gt;&amp;nbsp;(lat, long)&lt;/font&gt;" style="text;strokeColor=none;fillColor=none;html=1;fontSize=24;fontStyle=1;verticalAlign=middle;align=center;" parent="1" vertex="1">
          <mxGeometry x="450" y="1330" width="50" height="20" as="geometry" />
        </mxCell>
        <mxCell id="O4ewTy7bo_iGMa0oxZgt-55" value="&lt;font style=&quot;font-size: 16px; font-weight: normal;&quot;&gt;&amp;nbsp;(lat, long)&lt;/font&gt;" style="text;strokeColor=none;fillColor=none;html=1;fontSize=24;fontStyle=1;verticalAlign=middle;align=center;" parent="1" vertex="1">
          <mxGeometry x="575.4" y="1330" width="50" height="20" as="geometry" />
        </mxCell>
        <mxCell id="O4ewTy7bo_iGMa0oxZgt-56" value="&lt;font style=&quot;font-size: 16px; font-weight: normal;&quot;&gt;Segment&lt;/font&gt;" style="text;strokeColor=none;fillColor=none;html=1;fontSize=24;fontStyle=1;verticalAlign=middle;align=center;" parent="1" vertex="1">
          <mxGeometry x="600" y="1240" width="50" height="20" as="geometry" />
        </mxCell>
        <mxCell id="O4ewTy7bo_iGMa0oxZgt-57" style="edgeStyle=orthogonalEdgeStyle;rounded=0;orthogonalLoop=1;jettySize=auto;html=1;exitX=0.5;exitY=1;exitDx=0;exitDy=0;" parent="1" source="O4ewTy7bo_iGMa0oxZgt-55" target="O4ewTy7bo_iGMa0oxZgt-55" edge="1">
          <mxGeometry relative="1" as="geometry" />
        </mxCell>
        <mxCell id="O4ewTy7bo_iGMa0oxZgt-58" value="&lt;font style=&quot;font-size: 16px; font-weight: normal;&quot;&gt;&amp;nbsp;(lat, long)&lt;/font&gt;" style="text;strokeColor=none;fillColor=none;html=1;fontSize=24;fontStyle=1;verticalAlign=middle;align=center;" parent="1" vertex="1">
          <mxGeometry x="570" y="1169" width="50" height="20" as="geometry" />
        </mxCell>
        <mxCell id="O4ewTy7bo_iGMa0oxZgt-59" value="" style="image;aspect=fixed;html=1;points=[];align=center;fontSize=12;image=img/lib/azure2/ai_machine_learning/Azure_Applied_AI.svg;" parent="1" vertex="1">
          <mxGeometry x="-330" y="1100" width="68" height="52" as="geometry" />
        </mxCell>
        <mxCell id="O4ewTy7bo_iGMa0oxZgt-60" value="" style="image;aspect=fixed;perimeter=ellipsePerimeter;html=1;align=center;shadow=0;dashed=0;fontColor=#4277BB;labelBackgroundColor=default;fontSize=12;spacingTop=3;image=img/lib/ibm/miscellaneous/scalable.svg;" parent="1" vertex="1">
          <mxGeometry x="9300" y="1040" width="570" height="570" as="geometry" />
        </mxCell>
        <mxCell id="O4ewTy7bo_iGMa0oxZgt-62" value="" style="sketch=0;html=1;aspect=fixed;strokeColor=none;shadow=0;fillColor=#3B8DF1;verticalAlign=top;labelPosition=center;verticalLabelPosition=bottom;shape=mxgraph.gcp2.check_available" parent="1" vertex="1">
          <mxGeometry x="9361.61" y="1770" width="400.77" height="348.67" as="geometry" />
        </mxCell>
        <mxCell id="O4ewTy7bo_iGMa0oxZgt-64" value="" style="sketch=0;html=1;aspect=fixed;strokeColor=none;shadow=0;fillColor=#3B8DF1;verticalAlign=top;labelPosition=center;verticalLabelPosition=bottom;shape=mxgraph.gcp2.social_media_time" parent="1" vertex="1">
          <mxGeometry x="9429" y="2180" width="400.3" height="412.68" as="geometry" />
        </mxCell>
        <mxCell id="JcNaMIq5nGrzL8NkOXHM-1" value="" style="html=1;verticalLabelPosition=bottom;align=center;labelBackgroundColor=#ffffff;verticalAlign=top;strokeWidth=2;strokeColor=#0080F0;shadow=0;dashed=0;shape=mxgraph.ios7.icons.globe;" parent="1" vertex="1">
          <mxGeometry x="-105" y="1570" width="170" height="170" as="geometry" />
        </mxCell>
      </root>
    </mxGraphModel>
  </diagram>
</mxfile>
